<svg xmlns="http://www.w3.org/2000/svg" viewBox="0 0 400 300">
  <rect width="400" height="300" fill="#fff3e0"/>
  <!-- Bowl -->
  <ellipse cx="200" cy="200" rx="140" ry="55" fill="#e8e8e8"/>
  <ellipse cx="200" cy="192" rx="125" ry="46" fill="#f4c542"/>
  <!-- corn on cob piece -->
  <rect x="160" y="172" width="50" height="22" rx="10" fill="#fdfaf3"/>
  <circle cx="170" cy="180" r="2" fill="#f4c542"/>
  <circle cx="180" cy="186" r="2" fill="#f4c542"/>
  <circle cx="190" cy="180" r="2" fill="#f4c542"/>
  <circle cx="200" cy="186" r="2" fill="#f4c542"/>
  <!-- potato chunks -->
  <circle cx="240" cy="190" r="14" fill="#e8c39a"/>
  <circle cx="265" cy="200" r="12" fill="#e8c39a"/>
  <!-- cream swirl -->
  <path d="M 150 200 Q 160 190 170 200 Q 180 210 190 200" stroke="#ffffff" stroke-width="5" fill="none" stroke-linecap="round"/>
  <!-- capers -->
  <circle cx="220" cy="205" r="3" fill="#2f9e44"/>
  <circle cx="235" cy="210" r="3" fill="#2f9e44"/>
  <!-- avocado slice -->
  <ellipse cx="290" cy="180" rx="14" ry="20" fill="#a8d840" transform="rotate(20 290 180)"/>
  <ellipse cx="290" cy="180" rx="6" ry="14" fill="#7ba82c" transform="rotate(20 290 180)"/>
</svg>
