<svg xmlns="http://www.w3.org/2000/svg" viewBox="0 0 400 300">
  <rect width="400" height="300" fill="#fff3e0"/>
  <!-- Plate -->
  <ellipse cx="200" cy="220" rx="160" ry="40" fill="#e0e0e0"/>
  <!-- Empanada 1 -->
  <path d="M 100 200 A 55 55 0 0 1 210 200 Z" fill="#f4d28a"/>
  <path d="M 100 200 Q 155 230 210 200" stroke="#d9a82a" stroke-width="4" fill="none"/>
  <!-- crimp marks -->
  <line x1="120" y1="205" x2="128" y2="195" stroke="#d9a82a" stroke-width="2"/>
  <line x1="140" y1="212" x2="148" y2="200" stroke="#d9a82a" stroke-width="2"/>
  <line x1="160" y1="216" x2="168" y2="203" stroke="#d9a82a" stroke-width="2"/>
  <line x1="180" y1="212" x2="188" y2="200" stroke="#d9a82a" stroke-width="2"/>
  <!-- Empanada 2 -->
  <path d="M 220 195 A 50 50 0 0 1 320 195 Z" fill="#f9e3a8"/>
  <path d="M 220 195 Q 270 222 320 195" stroke="#d9a82a" stroke-width="4" fill="none"/>
  <line x1="238" y1="200" x2="245" y2="190" stroke="#d9a82a" stroke-width="2"/>
  <line x1="256" y1="207" x2="263" y2="196" stroke="#d9a82a" stroke-width="2"/>
  <line x1="274" y1="210" x2="281" y2="198" stroke="#d9a82a" stroke-width="2"/>
  <line x1="292" y1="207" x2="299" y2="195" stroke="#d9a82a" stroke-width="2"/>
</svg>
