<svg xmlns="http://www.w3.org/2000/svg" viewBox="0 0 400 300">
  <rect width="400" height="300" fill="#fff3e0"/>
  <!-- Bowl -->
  <ellipse cx="200" cy="200" rx="140" ry="60" fill="#e8e8e8"/>
  <path d="M 60 200 Q 60 240 200 250 Q 340 240 340 200 L 340 195 Q 340 220 200 230 Q 60 220 60 195 Z" fill="#cfcfcf"/>
  <!-- Soup -->
  <ellipse cx="200" cy="195" rx="125" ry="48" fill="#d9480f"/>
  <!-- Hominy kernels -->
  <circle cx="160" cy="185" r="8" fill="#fff3d0"/>
  <circle cx="190" cy="200" r="8" fill="#fff3d0"/>
  <circle cx="225" cy="180" r="8" fill="#fff3d0"/>
  <circle cx="250" cy="200" r="8" fill="#fff3d0"/>
  <circle cx="210" cy="210" r="8" fill="#fff3d0"/>
  <!-- Garnish: cabbage strips -->
  <path d="M 140 175 Q 150 165 165 172" stroke="#a8d840" stroke-width="5" fill="none" stroke-linecap="round"/>
  <path d="M 235 170 Q 248 162 260 170" stroke="#a8d840" stroke-width="5" fill="none" stroke-linecap="round"/>
  <!-- Radish slice -->
  <circle cx="270" cy="185" r="10" fill="#e85d75"/>
  <circle cx="270" cy="185" r="5" fill="#ffffff"/>
  <!-- Lime wedge on side -->
  <path d="M 300 230 A 18 18 0 0 1 318 212 L 318 230 Z" fill="#a8d840"/>
</svg>
