<svg xmlns="http://www.w3.org/2000/svg" viewBox="0 0 400 300">
  <rect width="400" height="300" fill="#fff3e0"/>
  <!-- Plate -->
  <ellipse cx="200" cy="220" rx="160" ry="40" fill="#e0e0e0"/>
  <!-- Tomato sauce pool -->
  <ellipse cx="200" cy="200" rx="130" ry="45" fill="#e85d40"/>
  <!-- Pepper 1 -->
  <path d="M 130 190 Q 110 140 150 120 Q 190 110 195 150 Q 200 190 160 200 Q 140 205 130 190 Z" fill="#2f9e44"/>
  <ellipse cx="160" cy="155" rx="20" ry="35" fill="#3fb556"/>
  <!-- cheese oozing -->
  <ellipse cx="160" cy="195" rx="25" ry="8" fill="#fff3d0"/>
  <!-- Pepper 2 -->
  <path d="M 230 190 Q 210 140 250 120 Q 290 110 295 150 Q 300 190 260 200 Q 240 205 230 190 Z" fill="#2f9e44"/>
  <ellipse cx="260" cy="155" rx="20" ry="35" fill="#3fb556"/>
  <ellipse cx="260" cy="195" rx="25" ry="8" fill="#fff3d0"/>
  <!-- Stems -->
  <rect x="155" y="105" width="10" height="18" rx="3" fill="#1e6b2c"/>
  <rect x="255" y="105" width="10" height="18" rx="3" fill="#1e6b2c"/>
</svg>
